<svg width="16" height="16" viewBox="0 0 16 16" fill="none" xmlns="http://www.w3.org/2000/svg">
<g id="Frame">
<path id="Vector" d="M7.99999 6.66667C9.28866 6.66667 10.3333 5.622 10.3333 4.33333C10.3333 3.04467 9.28866 2 7.99999 2C6.71132 2 5.66666 3.04467 5.66666 4.33333C5.66666 5.622 6.71132 6.66667 7.99999 6.66667Z" stroke="#111111" stroke-linecap="round" stroke-linejoin="round"/>
<path id="Vector_2" d="M2 13.5997V13.9997H14V13.5997C14 12.1062 14 11.3595 13.7094 10.789C13.4537 10.2873 13.0457 9.87931 12.544 9.62364C11.9735 9.33301 11.2268 9.33301 9.73333 9.33301H6.26667C4.7732 9.33301 4.02647 9.33301 3.45603 9.62364C2.95426 9.87931 2.54631 10.2873 2.29065 10.789C2 11.3595 2 12.1062 2 13.5997Z" stroke="#111111" stroke-linecap="round" stroke-linejoin="round"/>
</g>
</svg>
