<svg width="27" height="28" viewBox="0 0 27 28" fill="none" xmlns="http://www.w3.org/2000/svg">
<path id="Vector" d="M13.6271 22.0899C13.7633 22.0899 13.9021 22.0815 14.0416 22.0648C15.38 21.9035 16.5165 20.9641 16.936 19.6694C16.9676 19.5724 16.9219 19.4688 16.8297 19.4262C16.7383 19.3835 16.6278 19.4203 16.5763 19.5072C16.5713 19.5156 16.0396 20.3781 13.9693 20.659C13.6595 20.7008 13.3579 20.7225 13.0721 20.7225C11.6216 20.7217 10.9753 20.1725 10.9695 20.1675C10.8963 20.1023 10.785 20.1007 10.7103 20.1642C10.6347 20.2277 10.6172 20.338 10.6687 20.4225C11.3001 21.4505 12.4332 22.0899 13.6271 22.0899ZM24.7585 9.2049C24.7402 9.2049 24.7236 9.20825 24.7062 9.20825C23.4933 3.93423 18.8584 0 13.3014 0C7.59157 0 2.8504 4.15156 1.79946 9.6437C0.777624 9.82841 0 10.7303 0 11.821V16.1865C0 17.4102 0.977023 18.4023 2.18328 18.4023C2.8637 18.4023 3.46433 18.0797 3.86394 17.584C4.82923 20.1482 6.79476 22.216 9.28194 23.3068C9.2879 23.2937 9.33498 23.2018 9.39159 23.1286C9.43085 23.0778 9.47459 23.0361 9.51229 23.0361C9.55136 23.0361 9.58709 23.0503 9.61779 23.072C9.04206 22.6416 6.96267 20.4291 6.51241 17.3416C6.31467 15.9826 7.3282 14.6486 8.50874 14.428C10.4037 14.0736 12.2887 13.6699 14.1837 13.3222C15.3883 13.1015 16.2116 12.4379 16.715 11.333C16.833 11.0747 17.0034 10.5523 17.0815 9.79923C17.1022 9.68723 17.1936 9.60111 17.3107 9.60111C17.3889 9.60111 17.4553 9.64123 17.4994 9.69889L17.5517 9.6663C18.2985 10.7554 19.7798 13.1667 19.9925 15.7093C20.2367 18.6163 20.1005 20.6072 17.8848 22.6441C17.8823 22.6466 17.879 22.6499 17.8757 22.6525C17.8442 22.6862 17.8267 22.7307 17.8267 22.777C17.8267 22.8397 17.8599 22.8932 17.9081 22.9258C17.9264 22.9333 17.9447 22.9433 17.9629 22.9508C17.9779 22.9542 17.992 22.9592 18.007 22.9592C18.0219 22.9592 18.0352 22.9542 18.0485 22.9508C18.0801 22.9341 18.11 22.9149 18.1407 22.8982C20.3813 21.6586 22.1002 19.5883 22.8944 17.0984C23.2159 17.5782 23.7193 17.9234 24.3042 18.0437C23.3662 22.3281 19.5613 25.0094 14.8476 25.4165C14.5651 24.7127 13.8697 24.2129 13.0531 24.2129C11.9864 24.2129 11.1216 25.0612 11.1216 26.1069C11.1216 27.1525 11.9864 28 13.0531 28C13.9129 28 14.6332 27.445 14.8833 26.6828C20.3397 26.2373 24.7137 22.9801 25.6268 17.9192C26.4334 17.5807 27 16.7858 27 15.8581V11.4407C26.9999 10.2062 25.9963 9.20486 24.7585 9.20486V9.2049ZM22.7456 10.4737C21.3225 6.60219 17.6347 3.83645 13.2964 3.83645C8.97644 3.83645 5.30198 6.57878 3.86559 10.4252C3.79413 10.3374 3.71022 10.2622 3.62797 10.1861C4.44129 5.49888 8.45807 1.93495 13.3014 1.93495C18.1215 1.93495 22.1258 5.46375 22.9657 10.1185C22.8826 10.2305 22.8062 10.3475 22.7456 10.4737ZM9.28215 23.3069L9.2819 23.3068C9.281 23.3088 9.28097 23.309 9.28215 23.3069Z" fill="white"/>
</svg>
