<?xml version="1.0" standalone="no"?><!DOCTYPE svg PUBLIC "-//W3C//DTD SVG 1.1//EN" "http://www.w3.org/Graphics/SVG/1.1/DTD/svg11.dtd"><svg t="1703742499590" class="icon" viewBox="0 0 1024 1024" version="1.1" xmlns="http://www.w3.org/2000/svg" p-id="3455" xmlns:xlink="http://www.w3.org/1999/xlink" width="200" height="200"><path d="M921.088 585.142857A51.419429 51.419429 0 0 1 1024 585.142857v336.018286A102.838857 102.838857 0 0 1 921.088 1024H102.838857A102.838857 102.838857 0 0 1 0 921.161143V102.912A102.838857 102.838857 0 0 1 102.838857 0H438.857143a51.419429 51.419429 0 1 1 0 102.912H102.838857v818.249143h818.249143V585.142857z m3.584-411.209143L574.098286 523.702857A52.150857 52.150857 0 0 1 500.297143 450.121143l351.744-351.085714H677.522286a49.517714 49.517714 0 1 1 0-99.035429h252.123428A94.208 94.208 0 0 1 1024 94.134857v251.611429a49.664 49.664 0 0 1-99.328 0v-171.885715z" p-id="3456"></path></svg>