<svg width="32" height="32" viewBox="0 0 32 32" fill="none" xmlns="http://www.w3.org/2000/svg">
<g id="Frame">
<path id="Vector" d="M29.9184 24.3634V0.320312H4.80399C4.07893 0.3237 3.38482 0.614554 2.87394 1.12907C2.36305 1.64358 2.07712 2.33973 2.07887 3.06479V27.5654H2.10671C2.10407 28.653 2.53293 29.6972 3.29923 30.469C4.06552 31.2408 5.10665 31.6771 6.19423 31.6822H28.9942C29.2369 31.6822 29.4696 31.5858 29.6411 31.4143C29.8127 31.2427 29.9091 31.01 29.9091 30.7674C29.9091 30.5247 29.8127 30.292 29.6411 30.1204C29.4696 29.9489 29.2369 29.8525 28.9942 29.8525H6.19423C5.59096 29.8474 5.01411 29.6042 4.58931 29.1759C4.16451 28.7475 3.92615 28.1686 3.92615 27.5654C3.92615 26.9621 4.16451 26.3832 4.58931 25.9548C5.01411 25.5265 5.59096 25.2833 6.19423 25.2782H28.9942C29.236 25.2773 29.4675 25.1804 29.6378 25.0089C29.8082 24.8373 29.9035 24.6051 29.9027 24.3634H29.9187H29.9184ZM28.1017 2.15007V23.4486H6.19423C5.37327 23.448 4.57156 23.6972 3.89567 24.1632V3.06479C3.89494 2.82311 3.99018 2.59102 4.16046 2.41951C4.33074 2.248 4.56214 2.15109 4.80383 2.15007H28.1017ZM28.9937 28.4803H6.24271C6.00218 28.4771 5.77259 28.3794 5.60362 28.2081C5.43466 28.0369 5.33992 27.8061 5.33992 27.5655C5.33992 27.325 5.43466 27.0941 5.60362 26.9229C5.77259 26.7517 6.00218 26.6539 6.24271 26.6507H28.9937C29.2343 26.6539 29.4639 26.7517 29.6328 26.9229C29.8018 27.0941 29.8965 27.325 29.8965 27.5655C29.8965 27.8061 29.8018 28.0369 29.6328 28.2081C29.4639 28.3794 29.2343 28.4771 28.9937 28.4803ZM16.944 20.6534C16.8751 20.6534 16.8064 20.6484 16.7382 20.6384C16.4365 20.5963 16.1579 20.4535 15.9476 20.2331C15.7373 20.0127 15.6077 19.7277 15.5798 19.4243L14.944 13.352L8.91487 12.712C8.61307 12.6779 8.33108 12.5447 8.11295 12.3334C7.89482 12.122 7.75284 11.8444 7.70919 11.5438C7.66554 11.2432 7.72268 10.9367 7.87169 10.672C8.02069 10.4074 8.25316 10.1995 8.53278 10.081L22.0502 4.40031C22.2994 4.29501 22.5744 4.26692 22.8397 4.31969C23.105 4.37247 23.3483 4.50367 23.5382 4.69631C23.7298 4.88914 23.8601 5.13441 23.9124 5.40117C23.9648 5.66793 23.937 5.94423 23.8325 6.19519L18.192 19.8083C18.0925 20.0579 17.9204 20.272 17.6978 20.4226C17.4753 20.5733 17.2127 20.6537 16.944 20.6534ZM10.8734 11.0805L15.5003 11.5712C15.8112 11.6063 16.1007 11.7465 16.3212 11.9685C16.5416 12.1905 16.6797 12.481 16.7126 12.7922L17.2 17.452L21.7305 6.51743L10.8734 11.0805Z" fill="white"/>
</g>
</svg>
