<svg width="31" height="31" viewBox="0 0 31 31" fill="none" xmlns="http://www.w3.org/2000/svg">
<g id="Frame">
<path id="Vector" opacity="0.6" d="M10.9287 13.133H6.36045C5.86699 13.133 5.46436 12.7334 5.46436 12.2369C5.46436 11.7435 5.86397 11.3408 6.36045 11.3408H10.9287C11.4222 11.3408 11.8248 11.7404 11.8248 12.2369C11.8248 12.7304 11.4222 13.133 10.9287 13.133Z" fill="white"/>
<path id="Vector_2" opacity="0.6" d="M10.9287 16.8771H6.36045C5.86699 16.8771 5.46436 16.4775 5.46436 15.9811C5.46436 15.4876 5.86397 15.085 6.36045 15.085H10.9287C11.4222 15.085 11.8248 15.4846 11.8248 15.9811C11.8248 16.4745 11.4222 16.8771 10.9287 16.8771Z" fill="white"/>
<path id="Vector_3" d="M29.232 24.9426V7.51416L29.1624 7.35068C29.1169 7.24473 28.233 5.22852 24.8877 4.43232V4.40811H24.7939C23.9856 4.22344 23.0411 4.1084 21.93 4.1084C18.3487 4.1084 16.4626 5.28301 15.5242 6.22148C14.5857 5.28604 12.6966 4.1084 9.11528 4.1084C3.29067 4.1084 1.93442 7.22051 1.87993 7.35068L1.8103 7.51416V24.8215C1.8103 25.4936 2.01919 25.987 2.43394 26.2897C3.08481 26.7681 3.91733 26.5047 4.22915 26.4078L4.323 26.3715C7.34731 25.0273 12.2879 25.9749 13.7774 26.4139C13.9802 26.4744 14.4041 26.5985 14.8612 26.5985C15.1003 26.5985 15.3456 26.5562 15.5756 26.4623C16.1539 26.6803 16.7805 26.4895 17.0439 26.4078L17.1377 26.3715C20.1651 25.0243 25.0997 25.9749 26.5921 26.4108C26.795 26.4714 27.2188 26.5955 27.6759 26.5955C28.0816 26.5955 28.5175 26.4956 28.8475 26.1687C29.2229 25.8054 29.2895 25.3119 29.232 24.9426ZM20.2832 6.00352C20.7736 5.93691 21.3155 5.89756 21.927 5.89756C22.59 5.89756 23.1743 5.94297 23.695 6.01865V10.2933L22.036 9.30635L20.2832 10.3114V6.00352ZM8.3645 23.8951C6.73276 23.8951 5.04956 24.107 3.6479 24.7155C3.63276 24.7216 3.6146 24.7246 3.60249 24.7276V7.91982C3.9022 7.44756 5.18579 5.89756 9.11528 5.89756C13.0448 5.89756 14.3284 7.44453 14.6281 7.91982V24.7821C14.5373 24.767 14.4252 24.7397 14.286 24.6974C13.2173 24.3855 10.8499 23.8951 8.3645 23.8951ZM27.4428 24.7821C27.352 24.767 27.24 24.7397 27.0977 24.6974C26.0321 24.3855 23.6647 23.8951 21.1792 23.8951C19.5475 23.8951 17.8643 24.107 16.4626 24.7155C16.4475 24.7216 16.4324 24.7246 16.4172 24.7276V7.91982C16.6291 7.58682 17.3315 6.72402 19.0904 6.23965V12.373L22.0239 10.6868L24.8877 12.3912V6.27295C26.5649 6.76338 27.2339 7.5959 27.4428 7.91982V24.7821Z" fill="white"/>
</g>
</svg>
